<svg width="465" height="73" viewBox="0 0 465 73" fill="none" xmlns="http://www.w3.org/2000/svg">
<path d="M464.676 47.5315C464.676 51.7502 463.692 55.4065 461.723 58.5002C459.754 61.5627 457.035 64.1096 453.567 66.1409C450.129 68.1721 446.051 69.6877 441.332 70.6877C436.645 71.6565 431.567 72.1409 426.098 72.1409C420.16 72.1409 414.707 71.7659 409.739 71.0159C404.77 70.2346 400.426 69.1565 396.707 67.7815V60.9846C398.707 61.8284 400.77 62.6096 402.895 63.3284C405.02 64.0471 407.285 64.6877 409.692 65.2502C412.098 65.7815 414.66 66.2034 417.379 66.5159C420.129 66.7971 423.098 66.9377 426.285 66.9377C430.785 66.9377 435.004 66.5159 438.942 65.6721C442.879 64.7971 446.301 63.5471 449.207 61.9221C452.145 60.2659 454.457 58.2346 456.145 55.8284C457.864 53.4221 458.723 50.6565 458.723 47.5315V35.344C457.223 37.3752 455.379 39.3284 453.192 41.2034C451.035 43.0471 448.614 44.6877 445.926 46.1252C443.27 47.5315 440.379 48.6721 437.254 49.5471C434.129 50.3909 430.832 50.8127 427.364 50.8127C423.426 50.8127 419.926 50.4534 416.864 49.7346C413.832 48.9846 411.176 47.969 408.895 46.6877C406.645 45.4065 404.739 43.8909 403.176 42.1409C401.614 40.3596 400.348 38.4377 399.379 36.3752C398.442 34.2815 397.754 32.094 397.317 29.8127C396.91 27.5315 396.707 25.219 396.707 22.8752V6.65649H402.66V21.6096C402.66 25.2034 403.082 28.469 403.926 31.4065C404.801 34.344 406.223 36.8596 408.192 38.9534C410.16 41.0471 412.739 42.6721 415.926 43.8284C419.145 44.9534 423.114 45.5159 427.832 45.5159C431.489 45.5159 434.848 45.0315 437.91 44.0627C440.973 43.0627 443.77 41.7346 446.301 40.0784C448.832 38.3909 451.129 36.4534 453.192 34.2659C455.254 32.0784 457.098 29.7815 458.723 27.3752V6.65649H464.676V47.5315Z" fill="#801CCC"/>
<path d="M336.614 48.7971C336.614 51.7034 336.848 54.2034 337.317 56.2971C337.785 58.3909 338.77 60.1096 340.27 61.4534C341.77 62.7971 343.926 63.7971 346.739 64.4534C349.582 65.0784 353.348 65.3909 358.035 65.3909H387.145V71.0627H356.864C351.707 71.0627 347.442 70.6565 344.067 69.844C340.723 69.0002 338.051 67.719 336.051 66.0002C334.082 64.2502 332.707 62.0471 331.926 59.3909C331.145 56.7346 330.754 53.5784 330.754 49.9221V6.65649H336.614V48.7971Z" fill="#801CCC"/>
<path d="M308.301 67.6877C305.676 68.5002 303.239 69.2034 300.989 69.7971C298.739 70.3596 296.52 70.8127 294.332 71.1565C292.145 71.5315 289.91 71.7971 287.629 71.9534C285.379 72.1409 282.895 72.2346 280.176 72.2346C273.864 72.2346 268.16 71.469 263.067 69.9377C257.973 68.4065 253.629 66.219 250.035 63.3752C246.473 60.5002 243.723 57.0315 241.785 52.969C239.848 48.9065 238.879 44.344 238.879 39.2815C238.879 34.3752 239.801 29.8752 241.645 25.7815C243.52 21.6877 246.129 18.1721 249.473 15.2346C252.817 12.2971 256.817 10.0159 261.473 8.39087C266.129 6.76587 271.27 5.95337 276.895 5.95337C282.739 5.95337 287.942 6.73462 292.504 8.29712C297.067 9.85962 300.91 12.094 304.035 15.0002C307.16 17.9065 309.535 21.4377 311.16 25.594C312.785 29.719 313.598 34.3752 313.598 39.5627V41.0159H244.926C245.27 45.0159 246.27 48.6252 247.926 51.844C249.582 55.0627 251.926 57.7971 254.957 60.0471C258.02 62.2971 261.77 64.0315 266.207 65.2502C270.676 66.4377 275.879 67.0315 281.817 67.0315C284.348 67.0315 286.91 66.8596 289.504 66.5159C292.098 66.1721 294.582 65.719 296.957 65.1565C299.332 64.5627 301.504 63.9065 303.473 63.1877C305.442 62.4377 307.051 61.6721 308.301 60.8909V67.6877ZM307.832 35.9065C307.614 32.6252 306.879 29.5002 305.629 26.5315C304.379 23.5315 302.504 20.8909 300.004 18.6096C297.535 16.3284 294.379 14.5159 290.535 13.1721C286.723 11.8284 282.145 11.1565 276.801 11.1565C271.77 11.1565 267.364 11.8284 263.582 13.1721C259.801 14.5159 256.598 16.3284 253.973 18.6096C251.348 20.8596 249.285 23.4846 247.785 26.4846C246.285 29.4534 245.332 32.594 244.926 35.9065H307.832Z" fill="#801CCC"/>
<path d="M137.817 71.0627V63.9377C135.567 65.1565 133.004 66.2815 130.129 67.3127C127.285 68.344 124.27 69.2346 121.082 69.9846C117.926 70.7346 114.676 71.3127 111.332 71.719C107.989 72.1252 104.707 72.3284 101.489 72.3284C97.301 72.3284 93.5354 71.9534 90.1917 71.2034C86.8792 70.4534 84.0667 69.344 81.7542 67.8752C79.4417 66.3752 77.6604 64.5315 76.4104 62.344C75.1604 60.1252 74.5354 57.5627 74.5354 54.6565C74.5354 51.7815 75.2542 49.2502 76.6917 47.0627C78.1604 44.844 80.2385 42.9221 82.926 41.2971C85.6135 39.6409 88.8479 38.2502 92.6292 37.1252C96.4417 35.969 100.692 35.0002 105.379 34.219C110.067 33.4065 115.129 32.7502 120.567 32.2502C126.035 31.719 131.785 31.2815 137.817 30.9377V26.0159C137.817 24.0159 137.442 22.2502 136.692 20.719C135.942 19.1877 134.895 17.8596 133.551 16.7346C132.207 15.5784 130.629 14.6252 128.817 13.8752C127.004 13.094 125.035 12.469 122.91 12.0002C120.817 11.5315 118.598 11.2034 116.254 11.0159C113.942 10.7971 111.614 10.6877 109.27 10.6877C106.114 10.6877 103.239 10.844 100.645 11.1565C98.051 11.469 95.6292 11.9065 93.3792 12.469C91.1292 13.0002 88.9729 13.6252 86.9104 14.344C84.8479 15.0627 82.7698 15.8284 80.676 16.6409V9.79712C85.0198 8.64087 89.6448 7.64087 94.551 6.79712C99.4885 5.92212 104.723 5.48462 110.254 5.48462C114.942 5.48462 119.317 5.89087 123.379 6.70337C127.442 7.48462 130.973 8.75024 133.973 10.5002C136.973 12.2502 139.332 14.5159 141.051 17.2971C142.77 20.0471 143.629 23.4065 143.629 27.3752V71.0627H137.817ZM137.817 36.1409C127.598 36.7034 118.864 37.5002 111.614 38.5315C104.395 39.5627 98.4885 40.8284 93.8948 42.3284C89.301 43.8284 85.926 45.5784 83.7698 47.5784C81.6448 49.5784 80.5823 51.844 80.5823 54.3752C80.5823 56.4377 81.0979 58.2659 82.1292 59.8596C83.1917 61.4534 84.7073 62.7971 86.676 63.8909C88.6448 64.9534 91.0354 65.7659 93.8479 66.3284C96.6604 66.8596 99.8167 67.1252 103.317 67.1252C105.379 67.1252 107.504 67.0159 109.692 66.7971C111.91 66.5471 114.114 66.219 116.301 65.8127C118.489 65.3752 120.645 64.8752 122.77 64.3127C124.895 63.719 126.895 63.0784 128.77 62.3909C130.645 61.7034 132.348 60.969 133.879 60.1877C135.442 59.4065 136.754 58.6096 137.817 57.7971V36.1409Z" fill="#801CCC"/>
<path d="M33.8948 12.1409C29.176 12.1409 25.1135 12.469 21.7073 13.1252C18.301 13.7502 15.4885 14.7346 13.2698 16.0784C11.0823 17.4221 9.45728 19.1409 8.39478 21.2346C7.33228 23.3284 6.80103 25.8284 6.80103 28.7346V35.9065H61.8323V41.3909H6.80103V71.0627H0.94165V27.7502C0.94165 24.4377 1.51978 21.469 2.67603 18.844C3.86353 16.219 5.73853 14.0159 8.30103 12.2346C10.8635 10.4221 14.1448 9.04712 18.1448 8.10962C22.176 7.14087 27.0354 6.65649 32.7229 6.65649H62.7698V12.1409H33.8948Z" fill="#801CCC"/>
<path d="M194.58 71.0543C192.465 73.2994 188.628 73.3773 185.815 71.0543C183.002 68.7314 123.686 3.55859 171.923 3.55859C177.729 3.55859 188.455 8.98234 188.455 14.0609C188.455 15.8991 171.923 0.340573 167.068 16.2995C162.213 32.2585 186.232 49.7442 192.362 62.0231C192.362 62.0231 244.862 0.283987 220.289 7.03774C218.028 7.80037 205.716 10.6719 207.872 7.8132C210.029 4.95453 215.906 2.28211 218.918 1.66976C261.379 -6.96054 196.696 68.8092 194.58 71.0543Z" fill="black"/>
</svg>
