<svg width="198" height="100" viewBox="0 0 198 100" fill="none" xmlns="http://www.w3.org/2000/svg">
<path d="M139.393 55.3854C142.828 56.268 148.856 54.3272 149.414 52.9118C151.738 47.0125 156.869 52.2102 153.977 54.7968C150.562 57.8512 136.202 60.2807 134.497 57.5517C130.036 50.4108 136.469 46.823 143.053 44.3208C154.586 41.0587 153.025 50.8068 139.393 55.3854ZM139.393 47.4986C138.502 48.0784 138.546 51.4674 138.546 53.4771C143.053 51.5189 143.86 52.0565 145.085 48.1899C145.832 45.8285 144.965 43.8743 139.393 47.4986Z" fill="#801CCC"/>
<path d="M193.209 44.5796C193.774 78.5308 145.644 92.4739 117.037 92.6526C104.688 92.7473 69.3022 92.6526 67.8398 71.7906C67.84 69.8618 71.5914 69.1854 71.9616 72.4673C73.922 89.8468 105.448 90.467 117.831 90.0464C133.707 89.5072 177.902 82.102 186.929 56.9527C182.217 58.7693 175.329 60.4195 173.723 55.913C172.439 52.3122 173.009 49.7192 174.646 45.0531C175.145 43.6303 177.157 42.6229 178.402 44.5795C179.163 45.7775 174.646 48.3644 176.406 55.0387C177.107 57.7001 183.914 55.361 187.462 54.6327C188.016 51.8937 188.681 47.0916 189.271 44.5795C189.899 43.1263 192.189 42.7623 193.209 44.5796Z" fill="#801CCC"/>
<path d="M119.672 42.2598C117.474 42.932 111.656 40.9435 116.371 39.3969C119.512 38.3669 116.759 32.9319 113.915 33.7535C107.092 35.301 105.362 40.8024 105.268 46.4649C105.134 50.7168 105.569 56.953 108.419 56.953C109.697 56.953 121.701 54.4403 127.274 49.9539C129.625 47.6784 131.25 45.1322 132.757 42.26C134.904 38.1682 127.875 41.7789 124.766 42.9273C118.035 43.093 132.757 26.9166 135.407 37.5718C138.652 50.6203 117.716 61.1366 105.923 59.723C104.494 59.2729 104.494 59.2729 102.924 58.4996C98.8586 58.8018 92.9174 57.7263 88.9232 56.7476C86.0087 56.2287 73.2331 60.6189 72.9467 54.8276C72.6011 47.8387 84.6875 43.6944 89.722 46.1739C90.178 48.2265 89.4221 50.7786 89.1551 53.4078C92.8527 54.7736 97.4521 55.7821 101.353 56.1797C101.544 47.9141 96.2815 37.5095 104.837 31.6752C113.915 25.4849 121.243 32.2069 119.672 42.2598ZM77.0155 53.0864C77.5018 53.7168 81.6822 53.484 84.0813 53.0864C85.1914 52.9024 85.8042 50.4516 86.1544 49.2198C87.9134 43.0333 74.2684 49.5248 77.0155 53.0864Z" fill="#801CCC"/>
<path d="M173.907 27.1895C169.207 30.2826 160.275 48.6734 161.974 53.0865C167.168 50.9159 169.894 51.4105 169.04 55.4064C168.775 56.6466 159.09 57.894 158.415 56.1774C153.996 44.9449 165.185 29.5001 169.825 25.2471C173.907 21.5057 177.641 23.5711 173.907 27.1895Z" fill="#801CCC"/>
<path d="M114.027 8.14803C126.607 6.03618 149.275 7.42702 146.234 19.8336C144.239 27.9722 132.15 29.5341 128.832 25.2469C125.513 20.9598 134.327 17.2818 134.327 24.4736C140.66 25.9513 142.246 22.898 142.963 19.0604C144.376 9.31272 120.549 9.64417 113.01 11.5931C96.5435 15.331 82.6423 27.6412 72.3051 39.94C78.9015 40.0253 86.945 39.9048 93.5025 39.1666C93.5025 39.9322 93.5025 40.6978 93.5025 41.4866C88.0583 42.5591 80.4466 43.0289 74.8632 43.0289C69.4753 43.0289 70.2962 43.4434 68.3183 45.0722C54.2663 56.6441 32.8852 76.3899 11.853 71.6459C8.37956 70.8624 1.75815 66.8934 6.35753 63.4648C10.0219 62.0095 10.4041 65.7944 11.853 67.7793C30.8147 71.6086 49.1062 56.1169 61.3138 43.8065C55.0958 43.5513 48.8779 43.2961 42.4715 43.0332C42.7306 42.0124 42.9897 40.9917 43.2566 39.94C46.7662 41.0565 50.5188 40.8229 54.1636 40.887C61.7112 40.9081 63.2822 41.9428 68.3183 37.1004C82.9802 23.0595 93.5025 11.5933 114.027 8.14803Z" fill="#801CCC"/>
</svg>
